<svg width="180" height="53" viewBox="0 0 180 53" fill="none" xmlns="http://www.w3.org/2000/svg">
<path d="M179 46.5024C179 49.2735 176.709 51.5182 173.874 51.5182H6.13243C3.2995 51.5182 1 49.2735 1 46.5024V6.50284C1 3.73301 3.2995 1.48047 6.13243 1.48047H173.873C176.709 1.48047 178.999 3.73301 178.999 6.50284L179 46.5024Z" fill="black"/>
<path d="M173.333 1.54162C176.42 1.54162 178.932 3.9905 178.932 7V46C178.932 49.0095 176.42 51.4584 173.333 51.4584H6.66667C3.58 51.4584 1.06833 49.0095 1.06833 46V7C1.06833 3.9905 3.58 1.54162 6.66667 1.54162H173.333ZM173.333 0.500003H6.66667C3.00167 0.500003 0 3.42663 0 7V46C0 49.5734 3.00167 52.5 6.66667 52.5H173.333C176.998 52.5 180 49.5734 180 46V7C180 3.42663 176.998 0.500003 173.333 0.500003Z" fill="#A6A6A6"/>
<path d="M40.1714 26.2191C40.1328 22.0292 43.6901 19.9908 43.8528 19.8959C41.8381 17.032 38.7154 16.6407 37.6181 16.6095C34.9954 16.3404 32.4514 18.1396 31.1154 18.1396C29.7528 18.1396 27.6954 16.6355 25.4781 16.6797C22.6248 16.7226 19.9554 18.3333 18.4914 20.8345C15.4701 25.9344 17.7234 33.4289 20.6181 37.5512C22.0661 39.5701 23.7581 41.8243 25.9728 41.745C28.1394 41.6579 28.9488 40.3982 31.5634 40.3982C34.1541 40.3982 34.9141 41.745 37.1728 41.6943C39.4981 41.6579 40.9621 39.6663 42.3594 37.6292C44.0328 35.3152 44.7048 33.0363 44.7314 32.9193C44.6768 32.9011 40.2154 31.241 40.1714 26.2191Z" fill="white"/>
<path d="M35.9048 13.8977C37.0701 12.4768 37.8674 10.5437 37.6461 8.58203C35.9594 8.65483 33.8501 9.71953 32.6354 11.1092C31.5608 12.3338 30.6008 14.341 30.8488 16.2286C32.7434 16.3664 34.6888 15.2965 35.9048 13.8977Z" fill="white"/>
<path d="M71.5269 41.4547H68.4989L66.8402 36.373H61.0749L59.4949 41.4547H56.5469L62.2589 24.1543H65.7869L71.5269 41.4547ZM66.3402 34.241L64.8402 29.7235C64.6815 29.262 64.3842 28.1752 63.9455 26.4644H63.8922C63.7175 27.2002 63.4362 28.287 63.0495 29.7235L61.5762 34.241H66.3402Z" fill="white"/>
<path d="M86.2159 35.0628C86.2159 37.1844 85.6279 38.8614 84.4519 40.0925C83.3985 41.1884 82.0905 41.7357 80.5292 41.7357C78.8439 41.7357 77.6332 41.1455 76.8959 39.9651H76.8425V46.5366H73.9999V33.0855C73.9999 31.7517 73.9639 30.3828 73.8945 28.9788H76.3945L76.5532 30.9561H76.6065C77.5545 29.4663 78.9932 28.7227 80.9239 28.7227C82.4332 28.7227 83.6932 29.3038 84.7012 30.4673C85.7119 31.6321 86.2159 33.1635 86.2159 35.0628ZM83.3199 35.1642C83.3199 33.95 83.0399 32.949 82.4772 32.1612C81.8625 31.3396 81.0372 30.9288 80.0025 30.9288C79.3012 30.9288 78.6639 31.1576 78.0945 31.6087C77.5239 32.0637 77.1505 32.6578 76.9759 33.3936C76.8879 33.7368 76.8439 34.0176 76.8439 34.2386V36.3186C76.8439 37.226 77.1292 37.9917 77.6999 38.617C78.2705 39.2423 79.0119 39.5543 79.9239 39.5543C80.9945 39.5543 81.8279 39.1513 82.4239 38.3479C83.0212 37.5432 83.3199 36.4824 83.3199 35.1642Z" fill="white"/>
<path d="M100.931 35.0628C100.931 37.1844 100.343 38.8614 99.166 40.0925C98.114 41.1884 96.806 41.7357 95.2447 41.7357C93.5593 41.7357 92.3487 41.1455 91.6127 39.9651H91.5593V46.5366H88.7167V33.0855C88.7167 31.7517 88.6807 30.3828 88.6113 28.9788H91.1113L91.27 30.9561H91.3233C92.27 29.4663 93.7087 28.7227 95.6407 28.7227C97.1487 28.7227 98.4087 29.3038 99.4193 30.4673C100.426 31.6321 100.931 33.1635 100.931 35.0628ZM98.0353 35.1642C98.0353 33.95 97.754 32.949 97.1913 32.1612C96.5767 31.3396 95.754 30.9288 94.718 30.9288C94.0153 30.9288 93.3793 31.1576 92.8087 31.6087C92.238 32.0637 91.866 32.6578 91.6913 33.3936C91.6047 33.7368 91.5593 34.0176 91.5593 34.2386V36.3186C91.5593 37.226 91.8447 37.9917 92.4127 38.617C92.9833 39.241 93.7247 39.5543 94.6393 39.5543C95.71 39.5543 96.5433 39.1513 97.1393 38.3479C97.7367 37.5432 98.0353 36.4824 98.0353 35.1642Z" fill="white"/>
<path d="M117.385 36.6027C117.385 38.0743 116.861 39.2716 115.809 40.1959C114.653 41.206 113.044 41.7104 110.976 41.7104C109.066 41.7104 107.536 41.3516 106.377 40.6327L107.036 38.3226C108.284 39.0584 109.653 39.4276 111.145 39.4276C112.216 39.4276 113.049 39.191 113.648 38.7204C114.244 38.2498 114.541 37.618 114.541 36.8302C114.541 36.1282 114.296 35.5367 113.804 35.057C113.314 34.5773 112.497 34.1314 111.356 33.7193C108.249 32.5896 106.697 30.9347 106.697 28.7585C106.697 27.3363 107.241 26.1702 108.33 25.2628C109.416 24.3541 110.864 23.9004 112.674 23.9004C114.289 23.9004 115.63 24.1747 116.701 24.722L115.99 26.9814C114.99 26.451 113.86 26.1858 112.594 26.1858C111.594 26.1858 110.813 26.4263 110.253 26.9047C109.78 27.3324 109.542 27.8537 109.542 28.4712C109.542 29.155 109.813 29.7205 110.357 30.1651C110.83 30.5759 111.69 31.0205 112.938 31.5002C114.465 32.0995 115.586 32.8002 116.308 33.6036C117.026 34.4044 117.385 35.4067 117.385 36.6027Z" fill="white"/>
<path d="M126.784 31.0594H123.651V37.1161C123.651 38.6566 124.203 39.4262 125.31 39.4262C125.818 39.4262 126.239 39.3833 126.572 39.2975L126.651 41.4022C126.091 41.6063 125.354 41.709 124.44 41.709C123.318 41.709 122.44 41.3749 121.807 40.708C121.176 40.0398 120.859 38.9192 120.859 37.3449V31.0568H118.992V28.9768H120.859V26.6927L123.651 25.8711V28.9768H126.784V31.0594Z" fill="white"/>
<path d="M140.921 35.1141C140.921 37.0316 140.358 38.6059 139.235 39.837C138.058 41.1045 136.495 41.7363 134.547 41.7363C132.67 41.7363 131.175 41.1292 130.061 39.915C128.946 38.7008 128.389 37.1681 128.389 35.3208C128.389 33.3877 128.962 31.8043 130.113 30.5732C131.261 29.3408 132.81 28.7246 134.758 28.7246C136.635 28.7246 138.146 29.3317 139.286 30.5472C140.377 31.7263 140.921 33.2486 140.921 35.1141ZM137.971 35.2038C137.971 34.0533 137.719 33.0666 137.209 32.2437C136.613 31.2479 135.761 30.7513 134.657 30.7513C133.514 30.7513 132.646 31.2492 132.05 32.2437C131.539 33.0679 131.287 34.0702 131.287 35.2558C131.287 36.4063 131.539 37.393 132.05 38.2146C132.665 39.2104 133.523 39.707 134.631 39.707C135.717 39.707 136.569 39.2 137.183 38.1886C137.707 37.3501 137.971 36.353 137.971 35.2038Z" fill="white"/>
<path d="M150.162 31.4163C149.88 31.3656 149.58 31.3396 149.266 31.3396C148.266 31.3396 147.492 31.7075 146.948 32.4446C146.475 33.0946 146.238 33.9162 146.238 34.9081V41.4536H143.396L143.423 32.9074C143.423 31.4696 143.387 30.1605 143.316 28.9801H145.792L145.896 31.3669H145.975C146.275 30.5466 146.748 29.8862 147.396 29.3909C148.03 28.945 148.714 28.7227 149.451 28.7227C149.714 28.7227 149.951 28.7409 150.162 28.7734V31.4163Z" fill="white"/>
<path d="M162.875 34.6259C162.875 35.1225 162.841 35.5411 162.771 35.883H154.243C154.276 37.1154 154.688 38.0579 155.48 38.7079C156.199 39.289 157.128 39.5802 158.269 39.5802C159.532 39.5802 160.684 39.3839 161.72 38.99L162.165 40.914C160.955 41.4288 159.525 41.6849 157.876 41.6849C155.892 41.6849 154.335 41.1155 153.201 39.978C152.071 38.8405 151.504 37.313 151.504 35.3968C151.504 33.5157 152.031 31.9492 153.085 30.6999C154.189 29.3661 155.681 28.6992 157.559 28.6992C159.403 28.6992 160.799 29.3661 161.747 30.6999C162.497 31.7594 162.875 33.0698 162.875 34.6259ZM160.164 33.907C160.183 33.0854 159.997 32.3756 159.612 31.7763C159.12 31.0054 158.364 30.6206 157.347 30.6206C156.417 30.6206 155.661 30.9963 155.084 31.7503C154.611 32.3496 154.329 33.0685 154.243 33.9057H160.164V33.907Z" fill="white"/>
<path d="M65.3997 13.5123C65.3997 15.0424 64.9291 16.1942 63.989 16.9677C63.1184 17.6814 61.881 18.0389 60.2784 18.0389C59.4837 18.0389 58.8037 18.0051 58.2344 17.9375V9.57719C58.977 9.46019 59.777 9.40039 60.641 9.40039C62.1677 9.40039 63.3184 9.72409 64.0944 10.3715C64.9637 11.1034 65.3997 12.1499 65.3997 13.5123ZM63.9264 13.55C63.9264 12.5581 63.657 11.7976 63.1184 11.2672C62.5797 10.7381 61.793 10.4729 60.757 10.4729C60.317 10.4729 59.9424 10.5015 59.6317 10.5613V16.917C59.8037 16.943 60.1184 16.9547 60.5757 16.9547C61.645 16.9547 62.4704 16.6648 63.0517 16.085C63.6331 15.5052 63.9264 14.6602 63.9264 13.55Z" fill="white"/>
<path d="M73.2126 14.8491C73.2126 15.7916 72.9366 16.5638 72.3846 17.1696C71.806 17.7923 71.0393 18.103 70.082 18.103C69.1593 18.103 68.4246 17.8053 67.8766 17.2073C67.33 16.6106 67.0566 15.8579 67.0566 14.9505C67.0566 14.0015 67.338 13.2228 67.9033 12.6183C68.4686 12.0138 69.2286 11.7109 70.186 11.7109C71.1086 11.7109 71.85 12.0086 72.4113 12.6053C72.9446 13.1851 73.2126 13.9339 73.2126 14.8491ZM71.7633 14.8933C71.7633 14.3278 71.638 13.8429 71.3886 13.4386C71.0953 12.9498 70.678 12.7054 70.1353 12.7054C69.574 12.7054 69.1473 12.9498 68.854 13.4386C68.6033 13.8429 68.4793 14.3356 68.4793 14.918C68.4793 15.4835 68.6046 15.9684 68.854 16.3727C69.1566 16.8615 69.578 17.1059 70.122 17.1059C70.6553 17.1059 71.074 16.8576 71.3753 16.3597C71.634 15.9476 71.7633 15.4588 71.7633 14.8933Z" fill="white"/>
<path d="M83.6867 11.8359L81.7201 17.9641H80.4401L79.6254 15.303C79.4187 14.6387 79.2507 13.9783 79.1201 13.3231H79.0947C78.9734 13.9965 78.8054 14.6556 78.5894 15.303L77.7241 17.9641H76.4294L74.5801 11.8359H76.0161L76.7267 14.7492C76.8987 15.4382 77.0401 16.0947 77.1534 16.7161H77.1787C77.2827 16.2039 77.4547 15.5513 77.6974 14.7622L78.5894 11.8372H79.7281L80.5827 14.6998C80.7894 15.3979 80.9574 16.07 81.0867 16.7174H81.1254C81.2201 16.0869 81.3627 15.4148 81.5521 14.6998L82.3147 11.8372H83.6867V11.8359Z" fill="white"/>
<path d="M90.9312 17.9639H89.5339V14.4539C89.5339 13.3723 89.1125 12.8315 88.2672 12.8315C87.8525 12.8315 87.5179 12.9797 87.2579 13.2774C87.0005 13.5751 86.8699 13.9261 86.8699 14.3278V17.9626H85.4725V13.5868C85.4725 13.0486 85.4552 12.4649 85.4219 11.8331H86.6499L86.7152 12.7912H86.7539C86.9165 12.4935 87.1592 12.2478 87.4779 12.0515C87.8565 11.8227 88.2805 11.707 88.7445 11.707C89.3312 11.707 89.8192 11.8916 90.2072 12.2621C90.6899 12.7158 90.9312 13.3931 90.9312 14.2927V17.9639Z" fill="white"/>
<path d="M94.7847 17.9635H93.3887V9.02344H94.7847V17.9635Z" fill="white"/>
<path d="M103.01 14.8491C103.01 15.7916 102.734 16.5638 102.182 17.1696C101.603 17.7923 100.835 18.103 99.8789 18.103C98.9549 18.103 98.2202 17.8053 97.6735 17.2073C97.1268 16.6106 96.8535 15.8579 96.8535 14.9505C96.8535 14.0015 97.1349 13.2228 97.7002 12.6183C98.2655 12.0138 99.0255 11.7109 99.9815 11.7109C100.906 11.7109 101.646 12.0086 102.208 12.6053C102.742 13.1851 103.01 13.9339 103.01 14.8491ZM101.559 14.8933C101.559 14.3278 101.434 13.8429 101.184 13.4386C100.892 12.9498 100.474 12.7054 99.9322 12.7054C99.3695 12.7054 98.9428 12.9498 98.6508 13.4386C98.4002 13.8429 98.2762 14.3356 98.2762 14.918C98.2762 15.4835 98.4015 15.9684 98.6508 16.3727C98.9535 16.8615 99.3749 17.1059 99.9189 17.1059C100.452 17.1059 100.87 16.8576 101.171 16.3597C101.431 15.9476 101.559 15.4588 101.559 14.8933Z" fill="white"/>
<path d="M109.773 17.9639H108.519L108.415 17.258H108.376C107.947 17.8209 107.335 18.103 106.54 18.103C105.947 18.103 105.467 17.9171 105.105 17.5479C104.777 17.2125 104.613 16.7952 104.613 16.2999C104.613 15.5511 104.933 14.9804 105.577 14.5852C106.22 14.19 107.124 13.9963 108.288 14.0054V13.891C108.288 13.0837 107.853 12.6807 106.983 12.6807C106.363 12.6807 105.816 12.8328 105.344 13.1344L105.06 12.24C105.644 11.8877 106.365 11.7109 107.216 11.7109C108.859 11.7109 109.683 12.5559 109.683 14.2459V16.5027C109.683 17.115 109.713 17.6025 109.773 17.9639ZM108.323 15.8579V14.9128C106.781 14.8868 106.011 15.2989 106.011 16.1478C106.011 16.4676 106.099 16.7068 106.279 16.8667C106.459 17.0266 106.688 17.1059 106.961 17.1059C107.268 17.1059 107.555 17.011 107.816 16.8225C108.079 16.6327 108.24 16.3922 108.3 16.0971C108.315 16.0308 108.323 15.9502 108.323 15.8579Z" fill="white"/>
<path d="M117.713 17.9635H116.473L116.408 16.9794H116.369C115.973 17.7282 115.298 18.1026 114.35 18.1026C113.593 18.1026 112.962 17.8127 112.462 17.2329C111.962 16.6531 111.713 15.9004 111.713 14.9761C111.713 13.9842 111.984 13.1808 112.528 12.5672C113.054 11.9952 113.7 11.7092 114.468 11.7092C115.312 11.7092 115.902 11.9861 116.238 12.5412H116.265V9.02344H117.664V16.3125C117.664 16.9092 117.68 17.4591 117.713 17.9635ZM116.265 15.3791V14.3573C116.265 14.1805 116.252 14.0375 116.226 13.9283C116.148 13.6007 115.978 13.3251 115.721 13.1028C115.461 12.8805 115.148 12.7687 114.786 12.7687C114.265 12.7687 113.857 12.9702 113.557 13.3745C113.26 13.7788 113.109 14.2949 113.109 14.9254C113.109 15.5312 113.252 16.0226 113.538 16.4009C113.841 16.8039 114.249 17.0054 114.76 17.0054C115.218 17.0054 115.585 16.8377 115.864 16.501C116.133 16.1903 116.265 15.8159 116.265 15.3791Z" fill="white"/>
<path d="M129.664 14.8491C129.664 15.7916 129.388 16.5638 128.836 17.1696C128.257 17.7923 127.492 18.103 126.533 18.103C125.612 18.103 124.877 17.8053 124.328 17.2073C123.781 16.6106 123.508 15.8579 123.508 14.9505C123.508 14.0015 123.789 13.2228 124.354 12.6183C124.92 12.0138 125.68 11.7109 126.638 11.7109C127.56 11.7109 128.302 12.0086 128.862 12.6053C129.396 13.1851 129.664 13.9339 129.664 14.8491ZM128.216 14.8933C128.216 14.3278 128.09 13.8429 127.841 13.4386C127.546 12.9498 127.13 12.7054 126.586 12.7054C126.026 12.7054 125.6 12.9498 125.305 13.4386C125.054 13.8429 124.93 14.3356 124.93 14.918C124.93 15.4835 125.056 15.9684 125.305 16.3727C125.608 16.8615 126.029 17.1059 126.573 17.1059C127.106 17.1059 127.526 16.8576 127.828 16.3597C128.085 15.9476 128.216 15.4588 128.216 14.8933Z" fill="white"/>
<path d="M137.178 17.9639H135.782V14.4539C135.782 13.3723 135.361 12.8315 134.514 12.8315C134.099 12.8315 133.765 12.9797 133.506 13.2774C133.247 13.5751 133.118 13.9261 133.118 14.3278V17.9626H131.719V13.5868C131.719 13.0486 131.703 12.4649 131.67 11.8331H132.897L132.962 12.7912H133.001C133.165 12.4935 133.407 12.2478 133.725 12.0515C134.105 11.8227 134.527 11.707 134.993 11.707C135.578 11.707 136.066 11.8916 136.454 12.2621C136.938 12.7158 137.178 13.3931 137.178 14.2927V17.9639Z" fill="white"/>
<path d="M146.582 12.8553H145.043V15.8323C145.043 16.5889 145.317 16.9672 145.858 16.9672C146.109 16.9672 146.317 16.9464 146.481 16.9035L146.517 17.937C146.241 18.0384 145.878 18.0891 145.431 18.0891C144.879 18.0891 144.45 17.9253 144.139 17.5977C143.827 17.2701 143.673 16.7189 143.673 15.9454V12.8553H142.754V11.8348H143.673V10.7116L145.042 10.3086V11.8335H146.581V12.8553H146.582Z" fill="white"/>
<path d="M153.978 17.9635H152.58V14.4795C152.58 13.381 152.158 12.8311 151.314 12.8311C150.666 12.8311 150.224 13.1496 149.981 13.7866C149.94 13.9205 149.916 14.0843 149.916 14.2767V17.9622H148.52V9.02344H149.916V12.7167H149.942C150.382 12.0446 151.013 11.7092 151.83 11.7092C152.409 11.7092 152.888 11.8938 153.268 12.2643C153.741 12.7258 153.978 13.4122 153.978 14.3196V17.9635Z" fill="white"/>
<path d="M161.609 14.6099C161.609 14.8543 161.591 15.0597 161.557 15.2274H157.367C157.385 15.8332 157.585 16.2947 157.973 16.6145C158.328 16.9005 158.785 17.0435 159.345 17.0435C159.965 17.0435 160.531 16.9473 161.04 16.7536L161.259 17.7C160.663 17.9522 159.961 18.0783 159.149 18.0783C158.176 18.0783 157.409 17.7988 156.855 17.2398C156.297 16.6808 156.021 15.9307 156.021 14.9895C156.021 14.0652 156.279 13.2956 156.797 12.682C157.339 12.0268 158.071 11.6992 158.995 11.6992C159.899 11.6992 160.585 12.0268 161.049 12.682C161.424 13.202 161.609 13.8455 161.609 14.6099ZM160.276 14.2576C160.287 13.8533 160.195 13.5049 160.005 13.2111C159.763 12.8328 159.393 12.643 158.893 12.643C158.437 12.643 158.065 12.8276 157.781 13.1981C157.549 13.4932 157.412 13.8455 157.367 14.2576H160.276Z" fill="white"/>
</svg>
