<svg width="180" height="53" viewBox="0 0 180 53" fill="none" xmlns="http://www.w3.org/2000/svg">
<path d="M173.333 52.5H6.66667C3.00167 52.5 0 49.5734 0 46V7C0 3.42663 3.00167 0.500003 6.66667 0.500003H173.333C176.998 0.500003 180 3.42663 180 7V46C180 49.5734 176.998 52.5 173.333 52.5Z" fill="black"/>
<path d="M173.333 1.54162C176.42 1.54162 178.932 3.9905 178.932 7V46C178.932 49.0095 176.42 51.4584 173.333 51.4584H6.66667C3.58 51.4584 1.06833 49.0095 1.06833 46V7C1.06833 3.9905 3.58 1.54162 6.66667 1.54162H173.333ZM173.333 0.500003H6.66667C3.00167 0.500003 0 3.42663 0 7V46C0 49.5734 3.00167 52.5 6.66667 52.5H173.333C176.998 52.5 180 49.5734 180 46V7C180 3.42663 176.998 0.500003 173.333 0.500003Z" fill="#A6A6A6"/>
<path d="M63.2234 13.8182C63.2234 14.9037 62.8901 15.773 62.2334 16.4214C61.4784 17.19 60.4951 17.5768 59.2901 17.5768C58.1384 17.5768 57.155 17.1835 56.3484 16.4084C55.54 15.6219 55.1367 14.6567 55.1367 13.5013C55.1367 12.3459 55.54 11.3807 56.3484 10.6007C57.155 9.81903 58.1384 9.42578 59.2901 9.42578C59.8634 9.42578 60.41 9.54116 60.9317 9.75566C61.4517 9.97178 61.875 10.2643 62.1817 10.625L61.4851 11.3108C60.95 10.6949 60.2217 10.391 59.2901 10.391C58.4501 10.391 57.7217 10.677 57.1034 11.2539C56.4917 11.8324 56.185 12.5815 56.185 13.5013C56.185 14.421 56.4917 15.1767 57.1034 15.7552C57.7217 16.3255 58.4501 16.618 59.2901 16.618C60.1817 16.618 60.9317 16.3255 61.5234 15.7487C61.9134 15.3668 62.1351 14.8403 62.1934 14.1675H59.2901V13.2283H63.1634C63.2101 13.4314 63.2234 13.628 63.2234 13.8182Z" fill="white" stroke="white" stroke-width="0.16" stroke-miterlimit="10"/>
<path d="M69.3676 10.5606H65.7292V13.0306H69.0092V13.9699H65.7292V16.4399H69.3676V17.397H64.6992V9.60352H69.3676V10.5606Z" fill="white" stroke="white" stroke-width="0.16" stroke-miterlimit="10"/>
<path d="M73.7031 17.397H72.6731V10.5606H70.4414V9.60352H75.9364V10.5606H73.7031V17.397Z" fill="white" stroke="white" stroke-width="0.16" stroke-miterlimit="10"/>
<path d="M79.9141 17.397V9.60352H80.9424V17.397H79.9141Z" fill="white" stroke="white" stroke-width="0.16" stroke-miterlimit="10"/>
<path d="M85.5019 17.397H84.4802V10.5606H82.2402V9.60352H87.7419V10.5606H85.5019V17.397Z" fill="white" stroke="white" stroke-width="0.16" stroke-miterlimit="10"/>
<path d="M98.1446 16.3954C97.3563 17.1835 96.3796 17.5768 95.2146 17.5768C94.0429 17.5768 93.0663 17.1835 92.2779 16.3954C91.4913 15.6089 91.0996 14.6437 91.0996 13.5013C91.0996 12.3589 91.4913 11.3937 92.2779 10.6072C93.0663 9.81903 94.0429 9.42578 95.2146 9.42578C96.3729 9.42578 97.3496 9.81903 98.138 10.6137C98.9313 11.4067 99.3229 12.3654 99.3229 13.5013C99.3229 14.6437 98.9313 15.6089 98.1446 16.3954ZM93.0396 15.7422C93.6329 16.3255 94.3546 16.618 95.2146 16.618C96.0679 16.618 96.7963 16.3255 97.3829 15.7422C97.9746 15.1588 98.2746 14.4097 98.2746 13.5013C98.2746 12.5929 97.9746 11.8438 97.3829 11.2604C96.7963 10.677 96.0679 10.3845 95.2146 10.3845C94.3546 10.3845 93.6329 10.677 93.0396 11.2604C92.4479 11.8438 92.1479 12.5929 92.1479 13.5013C92.1479 14.4097 92.4479 15.1588 93.0396 15.7422Z" fill="white" stroke="white" stroke-width="0.16" stroke-miterlimit="10"/>
<path d="M100.768 17.397V9.60352H102.018L105.904 15.6648H105.949L105.904 14.1665V9.60352H106.933V17.397H105.859L101.789 11.0368H101.744L101.789 12.5415V17.397H100.768Z" fill="white" stroke="white" stroke-width="0.16" stroke-miterlimit="10"/>
<path d="M90.8474 28.7783C87.7157 28.7783 85.1574 31.102 85.1574 34.3082C85.1574 37.4883 87.7157 39.8364 90.8474 39.8364C93.9857 39.8364 96.544 37.4883 96.544 34.3082C96.544 31.102 93.9857 28.7783 90.8474 28.7783ZM90.8474 37.6589C89.129 37.6589 87.6507 36.276 87.6507 34.3082C87.6507 32.3143 89.129 30.9558 90.8474 30.9558C92.5657 30.9558 94.0507 32.3143 94.0507 34.3082C94.0507 36.276 92.5657 37.6589 90.8474 37.6589ZM78.4324 28.7783C75.294 28.7783 72.7424 31.102 72.7424 34.3082C72.7424 37.4883 75.294 39.8364 78.4324 39.8364C81.569 39.8364 84.1224 37.4883 84.1224 34.3082C84.1224 31.102 81.569 28.7783 78.4324 28.7783ZM78.4324 37.6589C76.7124 37.6589 75.229 36.276 75.229 34.3082C75.229 32.3143 76.7124 30.9558 78.4324 30.9558C80.1507 30.9558 81.629 32.3143 81.629 34.3082C81.629 36.276 80.1507 37.6589 78.4324 37.6589ZM63.659 30.4732V32.8229H69.414C69.2457 34.1359 68.7957 35.1012 68.1057 35.7739C67.2657 36.5864 65.9574 37.4883 63.659 37.4883C60.1174 37.4883 57.344 34.7014 57.344 31.2483C57.344 27.7952 60.1174 25.0083 63.659 25.0083C65.574 25.0083 66.9674 25.7379 67.9957 26.6837L69.694 25.0278C68.2557 23.6888 66.3424 22.6602 63.659 22.6602C58.8024 22.6602 54.7207 26.513 54.7207 31.2483C54.7207 35.9835 58.8024 39.8364 63.659 39.8364C66.284 39.8364 68.2557 38.9979 69.8057 37.4249C71.394 35.8763 71.889 33.6988 71.889 31.9405C71.889 31.3945 71.8424 30.8924 71.759 30.4732H63.659ZM124.069 32.2948C123.601 31.0582 122.156 28.7783 119.212 28.7783C116.296 28.7783 113.867 31.0192 113.867 34.3082C113.867 37.4054 116.271 39.8364 119.492 39.8364C122.097 39.8364 123.601 38.2878 124.219 37.3859L122.286 36.1298C121.641 37.0495 120.762 37.6589 119.492 37.6589C118.231 37.6589 117.326 37.095 116.746 35.9835L124.331 32.9237L124.069 32.2948ZM116.336 34.1359C116.271 32.0039 118.034 30.9119 119.297 30.9119C120.287 30.9119 121.127 31.3945 121.407 32.0852L116.336 34.1359ZM110.171 39.5H112.664V23.25H110.171V39.5ZM106.087 30.01H106.004C105.444 29.3633 104.376 28.7783 103.022 28.7783C100.182 28.7783 97.5857 31.2093 97.5857 34.326C97.5857 37.4249 100.182 39.8364 103.022 39.8364C104.376 39.8364 105.444 39.2465 106.004 38.5803H106.087V39.3733C106.087 41.4874 104.929 42.6233 103.061 42.6233C101.537 42.6233 100.592 41.5508 100.202 40.6489L98.034 41.5313C98.659 42.997 100.314 44.8008 103.061 44.8008C105.984 44.8008 108.451 43.1238 108.451 39.0434V29.1147H106.087V30.01ZM103.236 37.6589C101.517 37.6589 100.079 36.2565 100.079 34.326C100.079 32.3777 101.517 30.9558 103.236 30.9558C104.929 30.9558 106.264 32.3777 106.264 34.326C106.264 36.2565 104.929 37.6589 103.236 37.6589ZM135.742 23.25H129.779V39.5H132.266V33.3429H135.742C138.504 33.3429 141.212 31.3945 141.212 28.2957C141.212 25.1984 138.497 23.25 135.742 23.25ZM135.807 31.0825H132.266V25.5104H135.807C137.664 25.5104 138.724 27.0135 138.724 28.2957C138.724 29.5534 137.664 31.0825 135.807 31.0825ZM151.179 28.7474C149.382 28.7474 147.514 29.5209 146.746 31.2353L148.952 32.1372C149.427 31.2353 150.301 30.9428 151.224 30.9428C152.514 30.9428 153.822 31.6984 153.842 33.0325V33.2032C153.392 32.9497 152.429 32.5743 151.244 32.5743C148.867 32.5743 146.446 33.8499 146.446 36.2305C146.446 38.408 148.392 39.8104 150.581 39.8104C152.254 39.8104 153.177 39.0743 153.757 38.2179H153.842V39.474H156.244V33.2405C156.244 30.3594 154.037 28.7474 151.179 28.7474ZM150.879 37.6524C150.066 37.6524 148.932 37.2592 148.932 36.276C148.932 35.0183 150.346 34.5357 151.569 34.5357C152.664 34.5357 153.177 34.7713 153.842 35.0817C153.647 36.5864 152.319 37.6524 150.879 37.6524ZM164.994 29.1033L162.136 36.1477H162.051L159.096 29.1033H156.414L160.854 38.9475L158.321 44.4254H160.919L167.761 29.1033H164.994ZM142.579 39.5H145.072V23.25H142.579V39.5Z" fill="white"/>
<path d="M13.9152 10.2995C13.5235 10.6992 13.2969 11.3216 13.2969 12.1276V40.8771C13.2969 41.6831 13.5235 42.3055 13.9152 42.7052L14.0119 42.793L30.5352 26.6892V26.309L14.0119 10.2052L13.9152 10.2995Z" fill="url(#paint0_linear_1226_28024)"/>
<path d="M36.0368 32.0605L30.5352 26.6899V26.3097L36.0435 20.939L36.1668 21.0089L42.6902 24.6278C44.5518 25.6548 44.5518 27.3448 42.6902 28.3783L36.1668 31.9907L36.0368 32.0605Z" fill="url(#paint1_linear_1226_28024)"/>
<path d="M36.1657 31.9922L30.5341 26.5013L13.9141 42.7074C14.5324 43.3412 15.5407 43.4176 16.6874 42.7838L36.1657 31.9922Z" fill="url(#paint2_linear_1226_28024)"/>
<path d="M36.1657 21.0091L16.6874 10.2175C15.5407 9.59025 14.5324 9.66663 13.9141 10.3004L30.5341 26.5L36.1657 21.0091Z" fill="url(#paint3_linear_1226_28024)"/>
<defs>
<linearGradient id="paint0_linear_1226_28024" x1="29.0681" y1="41.1765" x2="7.258" y2="18.8071" gradientUnits="userSpaceOnUse">
<stop stop-color="#00A0FF"/>
<stop offset="0.0066" stop-color="#00A1FF"/>
<stop offset="0.2601" stop-color="#00BEFF"/>
<stop offset="0.5122" stop-color="#00D2FF"/>
<stop offset="0.7604" stop-color="#00DFFF"/>
<stop offset="1" stop-color="#00E3FF"/>
</linearGradient>
<linearGradient id="paint1_linear_1226_28024" x1="45.1144" y1="26.498" x2="12.8518" y2="26.498" gradientUnits="userSpaceOnUse">
<stop stop-color="#FFE000"/>
<stop offset="0.4087" stop-color="#FFBD00"/>
<stop offset="0.7754" stop-color="#FFA500"/>
<stop offset="1" stop-color="#FF9C00"/>
</linearGradient>
<linearGradient id="paint2_linear_1226_28024" x1="33.1034" y1="23.5164" x2="3.52709" y2="-6.81829" gradientUnits="userSpaceOnUse">
<stop stop-color="#FF3A44"/>
<stop offset="1" stop-color="#C31162"/>
</linearGradient>
<linearGradient id="paint3_linear_1226_28024" x1="9.73046" y1="52.2709" x2="22.9376" y2="38.7253" gradientUnits="userSpaceOnUse">
<stop stop-color="#32A071"/>
<stop offset="0.0685" stop-color="#2DA771"/>
<stop offset="0.4762" stop-color="#15CF74"/>
<stop offset="0.8009" stop-color="#06E775"/>
<stop offset="1" stop-color="#00F076"/>
</linearGradient>
</defs>
</svg>
